<svg xmlns="http://www.w3.org/2000/svg" version="1.1" xmlns:xlink="http://www.w3.org/1999/xlink" xmlns:svgjs="http://svgjs.com/svgjs" width="1440" height="560" preserveAspectRatio="none" viewBox="0 0 1440 560"><g mask="url(&quot;#SvgjsMask1110&quot;)" fill="none"><rect width="1440" height="560" x="0" y="0" fill="rgba(32, 32, 32, 1)"></rect><path d="M441.41956169320184 464.34883490609116L499.24523627935423 573.1031114767728 607.9995128500359 515.2774368906204 550.1738382638835 406.5231603199387z" fill="rgba(36, 36, 36, 1)" class="triangle-float3"></path><path d="M618.8 104.78 a135.6 135.6 0 1 0 271.2 0 a135.6 135.6 0 1 0 -271.2 0z" fill="rgba(36, 36, 36, 1)" class="triangle-float3"></path><path d="M531.3748673626445 461.92807367832L447.8964736968515 372.4084563480009 358.3768563665324 455.88685001379395 441.85525003232544 545.406467344113z" fill="rgba(36, 36, 36, 1)" class="triangle-float1"></path><path d="M78.622,406.73C104.15,407.969,131.046,400.208,144.287,378.347C157.922,355.835,154.214,327.168,140.37,304.784C127.247,283.566,103.56,271.463,78.622,272.173C54.872,272.849,34.178,287.344,22.677,308.135C11.552,328.247,11.8,352.475,23.143,372.465C34.64,392.726,55.353,405.6,78.622,406.73" fill="rgba(36, 36, 36, 1)" class="triangle-float3"></path><path d="M219.266,455.977C270.073,457.164,316.079,427.096,341.383,383.022C366.578,339.137,367.319,285.468,342.469,241.387C317.165,196.501,270.735,163.96,219.266,166.406C171.024,168.699,137.533,209.594,114.804,252.207C93.687,291.798,86.182,337.606,106.652,377.536C129.02,421.168,170.248,454.831,219.266,455.977" fill="rgba(36, 36, 36, 1)" class="triangle-float1"></path><path d="M606.709,531.205C664.186,534.22,724.417,513.25,752.723,463.136C780.676,413.647,763.296,354.057,734.423,305.099C706.115,257.099,662.435,215.44,606.709,215.55C551.133,215.659,505.544,256.314,479.863,305.6C456.158,351.093,459.878,404.377,485.019,449.092C510.723,494.809,554.333,528.457,606.709,531.205" fill="rgba(36, 36, 36, 1)" class="triangle-float1"></path><path d="M911.0419598291539 260.1822911707987L820.7628445929361 289.5157538695262 850.0963072916635 379.79486910574406 940.3754225278814 350.46140640701657z" fill="rgba(36, 36, 36, 1)" class="triangle-float3"></path><path d="M-140.92 502.56 a173.18 173.18 0 1 0 346.36 0 a173.18 173.18 0 1 0 -346.36 0z" fill="rgba(36, 36, 36, 1)" class="triangle-float2"></path><path d="M1103.7497536930096 447.2128477670729L1137.1136814662539 538.8794859483768 1228.7803196475577 505.5155581751324 1195.4163918743134 413.84891999382853z" fill="rgba(36, 36, 36, 1)" class="triangle-float1"></path><path d="M408.7732100321925 266.87778613867323L554.707956495753 241.14555291429826 528.975723271378 95.21080645073775 383.0409768078175 120.94303967511271z" fill="rgba(36, 36, 36, 1)" class="triangle-float1"></path></g><defs><mask id="SvgjsMask1110"><rect width="1440" height="560" fill="#ffffff"></rect></mask><style>
            @keyframes float1 {
                0%{transform: translate(0, 0)}
                50%{transform: translate(-10px, 0)}
                100%{transform: translate(0, 0)}
            }

            .triangle-float1 {
                animation: float1 5s infinite;
            }

            @keyframes float2 {
                0%{transform: translate(0, 0)}
                50%{transform: translate(-5px, -5px)}
                100%{transform: translate(0, 0)}
            }

            .triangle-float2 {
                animation: float2 4s infinite;
            }

            @keyframes float3 {
                0%{transform: translate(0, 0)}
                50%{transform: translate(0, -10px)}
                100%{transform: translate(0, 0)}
            }

            .triangle-float3 {
                animation: float3 6s infinite;
            }
        </style></defs></svg>