<svg xmlns="http://www.w3.org/2000/svg" version="1.1" xmlns:xlink="http://www.w3.org/1999/xlink" xmlns:svgjs="http://svgjs.com/svgjs" width="1440" height="560" preserveAspectRatio="none" viewBox="0 0 1440 560"><g mask="url(&quot;#SvgjsMask1003&quot;)" fill="none"><path d="M220.37 76.79L285.32 114.29L285.32 189.29L220.37 226.79L155.42 189.29L155.42 114.29zM155.42 189.29L220.37 226.79L220.37 301.79L155.42 339.29L90.46 301.79L90.46 226.79zM220.37 526.79L285.32 564.29L285.32 639.29L220.37 676.79L155.42 639.29L155.42 564.29zM285.32 189.29L350.28 226.79L350.28 301.79L285.32 339.29L220.37 301.79L220.37 226.79zM480.19 76.79L545.14 114.29L545.14 189.29L480.19 226.79L415.23 189.29L415.23 114.29zM610.09 526.79L675.05 564.29L675.05 639.29L610.09 676.79L545.14 639.29L545.14 564.29zM740 76.79L804.96 114.29L804.96 189.29L740 226.79L675.05 189.29L675.05 114.29zM740 526.79L804.96 564.29L804.96 639.29L740 676.79L675.05 639.29L675.05 564.29zM869.91 76.79L934.86 114.29L934.86 189.29L869.91 226.79L804.95 189.29L804.95 114.29zM869.91 301.79L934.86 339.29L934.86 414.29L869.91 451.79L804.95 414.29L804.95 339.29zM804.95 414.29L869.91 451.79L869.91 526.79L804.95 564.29L740 526.79L740 451.79zM999.82 526.79L1064.77 564.29L1064.77 639.29L999.82 676.79L934.86 639.29L934.86 564.29zM1129.72 301.79L1194.68 339.29L1194.68 414.29L1129.72 451.79L1064.77 414.29L1064.77 339.29zM1259.63 301.79L1324.58 339.29L1324.58 414.29L1259.63 451.79L1194.68 414.29L1194.68 339.29zM1259.63 526.79L1324.58 564.29L1324.58 639.29L1259.63 676.79L1194.68 639.29L1194.68 564.29zM1324.59 189.29L1389.54 226.79L1389.54 301.79L1324.59 339.29L1259.63 301.79L1259.63 226.79zM1389.54 301.79L1454.49 339.29L1454.49 414.29L1389.54 451.79L1324.59 414.29L1324.59 339.29zM1454.49 -35.71L1519.45 1.79L1519.45 76.79L1454.49 114.29L1389.54 76.79L1389.54 1.79zM1519.45 76.79L1584.4 114.29L1584.4 189.29L1519.45 226.79L1454.49 189.29L1454.49 114.29zM1454.49 189.29L1519.45 226.79L1519.45 301.79L1454.49 339.29L1389.54 301.79L1389.54 226.79zM1519.45 301.79L1584.4 339.29L1584.4 414.29L1519.45 451.79L1454.49 414.29L1454.49 339.29zM1454.49 414.29L1519.45 451.79L1519.45 526.79L1454.49 564.29L1389.54 526.79L1389.54 451.79zM1519.45 526.79L1584.4 564.29L1584.4 639.29L1519.45 676.79L1454.49 639.29L1454.49 564.29z" stroke="rgba(32, 32, 32, 1)" stroke-width="2"></path><path d="M212.87 76.79 a7.5 7.5 0 1 0 15 0 a7.5 7.5 0 1 0 -15 0zM277.82 114.29 a7.5 7.5 0 1 0 15 0 a7.5 7.5 0 1 0 -15 0zM277.82 189.29 a7.5 7.5 0 1 0 15 0 a7.5 7.5 0 1 0 -15 0zM212.87 226.79 a7.5 7.5 0 1 0 15 0 a7.5 7.5 0 1 0 -15 0zM147.92 189.29 a7.5 7.5 0 1 0 15 0 a7.5 7.5 0 1 0 -15 0zM147.92 114.29 a7.5 7.5 0 1 0 15 0 a7.5 7.5 0 1 0 -15 0zM212.87 301.79 a7.5 7.5 0 1 0 15 0 a7.5 7.5 0 1 0 -15 0zM147.92 339.29 a7.5 7.5 0 1 0 15 0 a7.5 7.5 0 1 0 -15 0zM82.96 301.79 a7.5 7.5 0 1 0 15 0 a7.5 7.5 0 1 0 -15 0zM82.96 226.79 a7.5 7.5 0 1 0 15 0 a7.5 7.5 0 1 0 -15 0zM212.87 526.79 a7.5 7.5 0 1 0 15 0 a7.5 7.5 0 1 0 -15 0zM277.82 564.29 a7.5 7.5 0 1 0 15 0 a7.5 7.5 0 1 0 -15 0zM277.82 639.29 a7.5 7.5 0 1 0 15 0 a7.5 7.5 0 1 0 -15 0zM212.87 676.79 a7.5 7.5 0 1 0 15 0 a7.5 7.5 0 1 0 -15 0zM147.92 639.29 a7.5 7.5 0 1 0 15 0 a7.5 7.5 0 1 0 -15 0zM147.92 564.29 a7.5 7.5 0 1 0 15 0 a7.5 7.5 0 1 0 -15 0zM342.78 226.79 a7.5 7.5 0 1 0 15 0 a7.5 7.5 0 1 0 -15 0zM342.78 301.79 a7.5 7.5 0 1 0 15 0 a7.5 7.5 0 1 0 -15 0zM277.82 339.29 a7.5 7.5 0 1 0 15 0 a7.5 7.5 0 1 0 -15 0zM472.69 76.79 a7.5 7.5 0 1 0 15 0 a7.5 7.5 0 1 0 -15 0zM537.64 114.29 a7.5 7.5 0 1 0 15 0 a7.5 7.5 0 1 0 -15 0zM537.64 189.29 a7.5 7.5 0 1 0 15 0 a7.5 7.5 0 1 0 -15 0zM472.69 226.79 a7.5 7.5 0 1 0 15 0 a7.5 7.5 0 1 0 -15 0zM407.73 189.29 a7.5 7.5 0 1 0 15 0 a7.5 7.5 0 1 0 -15 0zM407.73 114.29 a7.5 7.5 0 1 0 15 0 a7.5 7.5 0 1 0 -15 0zM602.59 526.79 a7.5 7.5 0 1 0 15 0 a7.5 7.5 0 1 0 -15 0zM667.55 564.29 a7.5 7.5 0 1 0 15 0 a7.5 7.5 0 1 0 -15 0zM667.55 639.29 a7.5 7.5 0 1 0 15 0 a7.5 7.5 0 1 0 -15 0zM602.59 676.79 a7.5 7.5 0 1 0 15 0 a7.5 7.5 0 1 0 -15 0zM537.64 639.29 a7.5 7.5 0 1 0 15 0 a7.5 7.5 0 1 0 -15 0zM537.64 564.29 a7.5 7.5 0 1 0 15 0 a7.5 7.5 0 1 0 -15 0zM732.5 76.79 a7.5 7.5 0 1 0 15 0 a7.5 7.5 0 1 0 -15 0zM797.46 114.29 a7.5 7.5 0 1 0 15 0 a7.5 7.5 0 1 0 -15 0zM797.46 189.29 a7.5 7.5 0 1 0 15 0 a7.5 7.5 0 1 0 -15 0zM732.5 226.79 a7.5 7.5 0 1 0 15 0 a7.5 7.5 0 1 0 -15 0zM667.55 189.29 a7.5 7.5 0 1 0 15 0 a7.5 7.5 0 1 0 -15 0zM667.55 114.29 a7.5 7.5 0 1 0 15 0 a7.5 7.5 0 1 0 -15 0zM732.5 526.79 a7.5 7.5 0 1 0 15 0 a7.5 7.5 0 1 0 -15 0zM797.46 564.29 a7.5 7.5 0 1 0 15 0 a7.5 7.5 0 1 0 -15 0zM797.46 639.29 a7.5 7.5 0 1 0 15 0 a7.5 7.5 0 1 0 -15 0zM732.5 676.79 a7.5 7.5 0 1 0 15 0 a7.5 7.5 0 1 0 -15 0zM862.41 76.79 a7.5 7.5 0 1 0 15 0 a7.5 7.5 0 1 0 -15 0zM927.36 114.29 a7.5 7.5 0 1 0 15 0 a7.5 7.5 0 1 0 -15 0zM927.36 189.29 a7.5 7.5 0 1 0 15 0 a7.5 7.5 0 1 0 -15 0zM862.41 226.79 a7.5 7.5 0 1 0 15 0 a7.5 7.5 0 1 0 -15 0zM797.45 189.29 a7.5 7.5 0 1 0 15 0 a7.5 7.5 0 1 0 -15 0zM797.45 114.29 a7.5 7.5 0 1 0 15 0 a7.5 7.5 0 1 0 -15 0zM862.41 301.79 a7.5 7.5 0 1 0 15 0 a7.5 7.5 0 1 0 -15 0zM927.36 339.29 a7.5 7.5 0 1 0 15 0 a7.5 7.5 0 1 0 -15 0zM927.36 414.29 a7.5 7.5 0 1 0 15 0 a7.5 7.5 0 1 0 -15 0zM862.41 451.79 a7.5 7.5 0 1 0 15 0 a7.5 7.5 0 1 0 -15 0zM797.45 414.29 a7.5 7.5 0 1 0 15 0 a7.5 7.5 0 1 0 -15 0zM797.45 339.29 a7.5 7.5 0 1 0 15 0 a7.5 7.5 0 1 0 -15 0zM862.41 526.79 a7.5 7.5 0 1 0 15 0 a7.5 7.5 0 1 0 -15 0zM797.45 564.29 a7.5 7.5 0 1 0 15 0 a7.5 7.5 0 1 0 -15 0zM732.5 451.79 a7.5 7.5 0 1 0 15 0 a7.5 7.5 0 1 0 -15 0zM992.32 526.79 a7.5 7.5 0 1 0 15 0 a7.5 7.5 0 1 0 -15 0zM1057.27 564.29 a7.5 7.5 0 1 0 15 0 a7.5 7.5 0 1 0 -15 0zM1057.27 639.29 a7.5 7.5 0 1 0 15 0 a7.5 7.5 0 1 0 -15 0zM992.32 676.79 a7.5 7.5 0 1 0 15 0 a7.5 7.5 0 1 0 -15 0zM927.36 639.29 a7.5 7.5 0 1 0 15 0 a7.5 7.5 0 1 0 -15 0zM927.36 564.29 a7.5 7.5 0 1 0 15 0 a7.5 7.5 0 1 0 -15 0zM1122.22 301.79 a7.5 7.5 0 1 0 15 0 a7.5 7.5 0 1 0 -15 0zM1187.18 339.29 a7.5 7.5 0 1 0 15 0 a7.5 7.5 0 1 0 -15 0zM1187.18 414.29 a7.5 7.5 0 1 0 15 0 a7.5 7.5 0 1 0 -15 0zM1122.22 451.79 a7.5 7.5 0 1 0 15 0 a7.5 7.5 0 1 0 -15 0zM1057.27 414.29 a7.5 7.5 0 1 0 15 0 a7.5 7.5 0 1 0 -15 0zM1057.27 339.29 a7.5 7.5 0 1 0 15 0 a7.5 7.5 0 1 0 -15 0zM1252.13 301.79 a7.5 7.5 0 1 0 15 0 a7.5 7.5 0 1 0 -15 0zM1317.08 339.29 a7.5 7.5 0 1 0 15 0 a7.5 7.5 0 1 0 -15 0zM1317.08 414.29 a7.5 7.5 0 1 0 15 0 a7.5 7.5 0 1 0 -15 0zM1252.13 451.79 a7.5 7.5 0 1 0 15 0 a7.5 7.5 0 1 0 -15 0zM1252.13 526.79 a7.5 7.5 0 1 0 15 0 a7.5 7.5 0 1 0 -15 0zM1317.08 564.29 a7.5 7.5 0 1 0 15 0 a7.5 7.5 0 1 0 -15 0zM1317.08 639.29 a7.5 7.5 0 1 0 15 0 a7.5 7.5 0 1 0 -15 0zM1252.13 676.79 a7.5 7.5 0 1 0 15 0 a7.5 7.5 0 1 0 -15 0zM1187.18 639.29 a7.5 7.5 0 1 0 15 0 a7.5 7.5 0 1 0 -15 0zM1187.18 564.29 a7.5 7.5 0 1 0 15 0 a7.5 7.5 0 1 0 -15 0zM1317.09 189.29 a7.5 7.5 0 1 0 15 0 a7.5 7.5 0 1 0 -15 0zM1382.04 226.79 a7.5 7.5 0 1 0 15 0 a7.5 7.5 0 1 0 -15 0zM1382.04 301.79 a7.5 7.5 0 1 0 15 0 a7.5 7.5 0 1 0 -15 0zM1317.09 339.29 a7.5 7.5 0 1 0 15 0 a7.5 7.5 0 1 0 -15 0zM1252.13 226.79 a7.5 7.5 0 1 0 15 0 a7.5 7.5 0 1 0 -15 0zM1446.99 339.29 a7.5 7.5 0 1 0 15 0 a7.5 7.5 0 1 0 -15 0zM1446.99 414.29 a7.5 7.5 0 1 0 15 0 a7.5 7.5 0 1 0 -15 0zM1382.04 451.79 a7.5 7.5 0 1 0 15 0 a7.5 7.5 0 1 0 -15 0zM1317.09 414.29 a7.5 7.5 0 1 0 15 0 a7.5 7.5 0 1 0 -15 0zM1446.99 -35.71 a7.5 7.5 0 1 0 15 0 a7.5 7.5 0 1 0 -15 0zM1511.95 1.79 a7.5 7.5 0 1 0 15 0 a7.5 7.5 0 1 0 -15 0zM1511.95 76.79 a7.5 7.5 0 1 0 15 0 a7.5 7.5 0 1 0 -15 0zM1446.99 114.29 a7.5 7.5 0 1 0 15 0 a7.5 7.5 0 1 0 -15 0zM1382.04 76.79 a7.5 7.5 0 1 0 15 0 a7.5 7.5 0 1 0 -15 0zM1382.04 1.79 a7.5 7.5 0 1 0 15 0 a7.5 7.5 0 1 0 -15 0zM1576.9 114.29 a7.5 7.5 0 1 0 15 0 a7.5 7.5 0 1 0 -15 0zM1576.9 189.29 a7.5 7.5 0 1 0 15 0 a7.5 7.5 0 1 0 -15 0zM1511.95 226.79 a7.5 7.5 0 1 0 15 0 a7.5 7.5 0 1 0 -15 0zM1446.99 189.29 a7.5 7.5 0 1 0 15 0 a7.5 7.5 0 1 0 -15 0zM1511.95 301.79 a7.5 7.5 0 1 0 15 0 a7.5 7.5 0 1 0 -15 0zM1576.9 339.29 a7.5 7.5 0 1 0 15 0 a7.5 7.5 0 1 0 -15 0zM1576.9 414.29 a7.5 7.5 0 1 0 15 0 a7.5 7.5 0 1 0 -15 0zM1511.95 451.79 a7.5 7.5 0 1 0 15 0 a7.5 7.5 0 1 0 -15 0zM1511.95 526.79 a7.5 7.5 0 1 0 15 0 a7.5 7.5 0 1 0 -15 0zM1446.99 564.29 a7.5 7.5 0 1 0 15 0 a7.5 7.5 0 1 0 -15 0zM1382.04 526.79 a7.5 7.5 0 1 0 15 0 a7.5 7.5 0 1 0 -15 0zM1576.9 564.29 a7.5 7.5 0 1 0 15 0 a7.5 7.5 0 1 0 -15 0zM1576.9 639.29 a7.5 7.5 0 1 0 15 0 a7.5 7.5 0 1 0 -15 0zM1511.95 676.79 a7.5 7.5 0 1 0 15 0 a7.5 7.5 0 1 0 -15 0zM1446.99 639.29 a7.5 7.5 0 1 0 15 0 a7.5 7.5 0 1 0 -15 0z" fill="rgba(32, 32, 32, 1)"></path><path d="M43.14 -6.07L86.44 18.93L86.44 68.93L43.14 93.93L-0.16 68.93L-0.16 18.93zM86.44 218.93L129.75 243.93L129.75 293.93L86.44 318.93L43.14 293.93L43.14 243.93zM43.14 293.93L86.44 318.93L86.44 368.93L43.14 393.93L-0.16 368.93L-0.16 318.93zM173.05 218.93L216.35 243.93L216.35 293.93L173.05 318.93L129.75 293.93L129.75 243.93zM216.35 -6.07L259.65 18.93L259.65 68.93L216.35 93.93L173.05 68.93L173.05 18.93zM302.95 -6.07L346.26 18.93L346.26 68.93L302.95 93.93L259.65 68.93L259.65 18.93zM346.26 68.93L389.56 93.93L389.56 143.93L346.26 168.93L302.95 143.93L302.95 93.93zM389.56 -6.07L432.86 18.93L432.86 68.93L389.56 93.93L346.26 68.93L346.26 18.93zM519.47 68.93L562.77 93.93L562.77 143.93L519.47 168.93L476.17 143.93L476.17 93.93zM606.07 518.93L649.38 543.93L649.38 593.93L606.07 618.93L562.77 593.93L562.77 543.93zM649.38 143.93L692.68 168.93L692.68 218.93L649.38 243.93L606.07 218.93L606.07 168.93zM692.68 218.93L735.98 243.93L735.98 293.93L692.68 318.93L649.38 293.93L649.38 243.93zM692.68 368.93L735.98 393.93L735.98 443.93L692.68 468.93L649.38 443.93L649.38 393.93zM735.98 143.93L779.28 168.93L779.28 218.93L735.98 243.93L692.68 218.93L692.68 168.93zM735.98 443.93L779.28 468.93L779.28 518.93L735.98 543.93L692.68 518.93L692.68 468.93zM865.89 368.93L909.19 393.93L909.19 443.93L865.89 468.93L822.59 443.93L822.59 393.93zM909.19 293.93L952.49 318.93L952.49 368.93L909.19 393.93L865.89 368.93L865.89 318.93zM1039.1 68.93L1082.4 93.93L1082.4 143.93L1039.1 168.93L995.8 143.93L995.8 93.93zM995.8 143.93L1039.1 168.93L1039.1 218.93L995.8 243.93L952.49 218.93L952.49 168.93zM1039.1 218.93L1082.4 243.93L1082.4 293.93L1039.1 318.93L995.8 293.93L995.8 243.93zM995.8 443.93L1039.1 468.93L1039.1 518.93L995.8 543.93L952.49 518.93L952.49 468.93zM1039.1 518.93L1082.4 543.93L1082.4 593.93L1039.1 618.93L995.8 593.93L995.8 543.93zM1082.4 143.93L1125.7 168.93L1125.7 218.93L1082.4 243.93L1039.1 218.93L1039.1 168.93zM1169.01 443.93L1212.31 468.93L1212.31 518.93L1169.01 543.93L1125.7 518.93L1125.7 468.93zM1385.52 68.93L1428.82 93.93L1428.82 143.93L1385.52 168.93L1342.22 143.93L1342.22 93.93zM1385.52 218.93L1428.82 243.93L1428.82 293.93L1385.52 318.93L1342.22 293.93L1342.22 243.93zM1342.22 293.93L1385.52 318.93L1385.52 368.93L1342.22 393.93L1298.91 368.93L1298.91 318.93z" stroke="rgba(32, 32, 32, 1)" stroke-width="2"></path></g><defs><mask id="SvgjsMask1003"><rect width="1440" height="560" fill="#ffffff"></rect></mask></defs></svg>